<svg xmlns="http://www.w3.org/2000/svg" xmlns:xlink="http://www.w3.org/1999/xlink" width="1366" zoomAndPan="magnify" viewBox="0 0 1024.5 576" height="768" preserveAspectRatio="xMidYMid meet" version="1.0"><defs><clipPath id="0401ae98fd"><path d="M 0 0.140625 L 1024 0.140625 L 1024 575.859375 L 0 575.859375 Z M 0 0.140625 " clip-rule="nonzero"/></clipPath><clipPath id="9436c3e7ac"><path d="M 0 0.140625 L 1024 0.140625 L 1024 385.441406 L 0 385.441406 Z M 0 0.140625 " clip-rule="nonzero"/></clipPath><clipPath id="cb74f26f23"><path d="M 525.234375 -804.519531 C 196.636719 -804.519531 -69.746094 -538.136719 -69.746094 -209.539062 C -69.746094 119.0625 196.636719 385.441406 525.234375 385.441406 C 853.835938 385.441406 1120.214844 119.0625 1120.214844 -209.539062 C 1120.214844 -538.136719 853.835938 -804.519531 525.234375 -804.519531 " clip-rule="nonzero"/></clipPath></defs><g clip-path="url(#0401ae98fd)"><path fill="#ffffff" d="M 0 0.140625 L 1024.5 0.140625 L 1024.5 583.640625 L 0 583.640625 Z M 0 0.140625 " fill-opacity="1" fill-rule="nonzero"/><path fill="#ffffff" d="M 0 0.140625 L 1024.5 0.140625 L 1024.5 576.140625 L 0 576.140625 Z M 0 0.140625 " fill-opacity="1" fill-rule="nonzero"/><path fill="#fafafb" d="M 0 0.140625 L 1024.5 0.140625 L 1024.5 576.140625 L 0 576.140625 Z M 0 0.140625 " fill-opacity="1" fill-rule="nonzero"/></g><g clip-path="url(#9436c3e7ac)"><g clip-path="url(#cb74f26f23)"><path fill="#ffbd59" d="M -69.746094 -804.519531 L 1120.214844 -804.519531 L 1120.214844 385.441406 L -69.746094 385.441406 Z M -69.746094 -804.519531 " fill-opacity="1" fill-rule="nonzero"/></g></g></svg>