<svg xmlns="http://www.w3.org/2000/svg" xmlns:xlink="http://www.w3.org/1999/xlink" width="120" zoomAndPan="magnify" viewBox="0 0 90 30.000001" height="40" preserveAspectRatio="xMidYMid meet" version="1.0"><defs><clipPath id="99e8b0c9e6"><path d="M 1.554688 7.011719 L 88.546875 7.011719 L 88.546875 22.253906 L 1.554688 22.253906 Z M 1.554688 7.011719 " clip-rule="nonzero"/></clipPath></defs><g clip-path="url(#99e8b0c9e6)"><path fill="#ffbd59" d="M 9.921875 7.414062 L 11.898438 11.484375 C 11.964844 11.644531 12.121094 11.757812 12.300781 11.78125 L 16.742188 12.4375 C 17.167969 12.507812 17.347656 13.050781 17.035156 13.347656 L 13.828125 16.507812 C 13.691406 16.621094 13.648438 16.804688 13.667969 16.984375 L 14.433594 21.464844 C 14.5 21.898438 14.050781 22.238281 13.667969 22.035156 L 9.699219 19.917969 C 9.539062 19.828125 9.363281 19.828125 9.203125 19.917969 L 5.234375 22.035156 C 4.851562 22.238281 4.402344 21.898438 4.46875 21.464844 L 5.234375 16.984375 C 5.253906 16.804688 5.210938 16.644531 5.078125 16.507812 L 1.867188 13.347656 C 1.554688 13.03125 1.734375 12.507812 2.160156 12.4375 L 6.601562 11.78125 C 6.78125 11.757812 6.914062 11.644531 7.003906 11.484375 L 8.980469 7.414062 C 9.183594 7.027344 9.742188 7.027344 9.921875 7.414062 Z M 26.792969 7.414062 L 24.820312 11.484375 C 24.753906 11.644531 24.59375 11.757812 24.417969 11.78125 L 19.972656 12.4375 C 19.546875 12.507812 19.367188 13.050781 19.683594 13.347656 L 22.890625 16.507812 C 23.023438 16.621094 23.070312 16.804688 23.046875 16.984375 L 22.285156 21.464844 C 22.21875 21.898438 22.667969 22.238281 23.046875 22.035156 L 27.019531 19.917969 C 27.175781 19.828125 27.355469 19.828125 27.511719 19.917969 L 31.484375 22.035156 C 31.863281 22.238281 32.335938 21.898438 32.246094 21.464844 L 31.484375 16.984375 C 31.460938 16.804688 31.507812 16.644531 31.640625 16.507812 L 34.847656 13.347656 C 35.164062 13.03125 34.984375 12.507812 34.558594 12.4375 L 30.113281 11.78125 C 29.933594 11.757812 29.800781 11.644531 29.710938 11.484375 L 27.738281 7.414062 C 27.558594 7.027344 26.996094 7.027344 26.792969 7.414062 Z M 44.632812 7.414062 L 42.65625 11.484375 C 42.589844 11.644531 42.433594 11.757812 42.253906 11.78125 L 37.808594 12.4375 C 37.382812 12.507812 37.203125 13.050781 37.519531 13.347656 L 40.726562 16.507812 C 40.863281 16.621094 40.90625 16.804688 40.882812 16.984375 L 40.121094 21.464844 C 40.054688 21.898438 40.503906 22.238281 40.882812 22.035156 L 44.855469 19.917969 C 45.011719 19.828125 45.191406 19.828125 45.347656 19.917969 L 49.320312 22.035156 C 49.703125 22.238281 50.171875 21.898438 50.082031 21.464844 L 49.320312 16.984375 C 49.296875 16.804688 49.34375 16.644531 49.476562 16.507812 L 52.683594 13.347656 C 53 13.03125 52.820312 12.507812 52.394531 12.4375 L 47.953125 11.78125 C 47.773438 11.757812 47.636719 11.644531 47.546875 11.484375 L 45.574219 7.414062 C 45.371094 7.027344 44.808594 7.027344 44.632812 7.414062 Z M 62.445312 7.414062 L 60.472656 11.484375 C 60.402344 11.644531 60.246094 11.757812 60.066406 11.78125 L 55.625 12.4375 C 55.199219 12.507812 55.019531 13.050781 55.332031 13.347656 L 58.542969 16.507812 C 58.675781 16.621094 58.722656 16.804688 58.699219 16.984375 L 57.9375 21.464844 C 57.867188 21.898438 58.316406 22.238281 58.699219 22.035156 L 62.667969 19.917969 C 62.828125 19.828125 63.007812 19.828125 63.164062 19.917969 L 67.132812 22.035156 C 67.515625 22.238281 67.988281 21.898438 67.898438 21.464844 L 67.132812 16.984375 C 67.113281 16.804688 67.15625 16.644531 67.292969 16.507812 L 70.5 13.347656 C 70.8125 13.03125 70.632812 12.507812 70.207031 12.4375 L 65.765625 11.78125 C 65.585938 11.757812 65.453125 11.644531 65.363281 11.484375 L 63.386719 7.414062 C 63.207031 7.027344 62.648438 7.027344 62.445312 7.414062 Z M 80.28125 7.414062 L 78.308594 11.484375 C 78.238281 11.644531 78.082031 11.757812 77.902344 11.78125 L 73.460938 12.4375 C 73.035156 12.507812 72.855469 13.050781 73.167969 13.347656 L 76.378906 16.507812 C 76.511719 16.621094 76.558594 16.804688 76.535156 16.984375 L 75.773438 21.464844 C 75.703125 21.898438 76.152344 22.238281 76.535156 22.035156 L 80.507812 19.917969 C 80.664062 19.828125 80.84375 19.828125 81 19.917969 L 84.972656 22.035156 C 85.351562 22.238281 85.824219 21.898438 85.734375 21.464844 L 84.972656 16.984375 C 84.949219 16.804688 84.992188 16.644531 85.128906 16.507812 L 88.335938 13.347656 C 88.652344 13.03125 88.472656 12.507812 88.042969 12.4375 L 83.601562 11.78125 C 83.421875 11.757812 83.289062 11.644531 83.199219 11.484375 L 81.222656 7.414062 C 81.023438 7.027344 80.460938 7.027344 80.28125 7.414062 Z M 80.28125 7.414062 " fill-opacity="1" fill-rule="nonzero"/></g></svg>