<svg xmlns="http://www.w3.org/2000/svg" xmlns:xlink="http://www.w3.org/1999/xlink" width="120" zoomAndPan="magnify" viewBox="0 0 90 30.000001" height="40" preserveAspectRatio="xMidYMid meet" version="1.0"><defs><clipPath id="cb55193c36"><path d="M 2.121094 6.875 L 87.765625 6.875 L 87.765625 22.117188 L 2.121094 22.117188 Z M 2.121094 6.875 " clip-rule="nonzero"/></clipPath></defs><g clip-path="url(#cb55193c36)"><path fill="#ffbd59" d="M 10.328125 7.527344 L 12.265625 11.464844 C 12.332031 11.617188 12.488281 11.726562 12.664062 11.75 L 17.019531 12.386719 C 17.4375 12.453125 17.613281 12.980469 17.304688 13.265625 L 14.160156 16.320312 C 14.027344 16.429688 13.984375 16.605469 14.003906 16.785156 L 14.753906 21.113281 C 14.820312 21.53125 14.378906 21.859375 14.003906 21.664062 L 10.109375 19.617188 C 9.957031 19.53125 9.78125 19.53125 9.625 19.617188 L 5.730469 21.664062 C 5.355469 21.859375 4.917969 21.53125 4.984375 21.113281 L 5.730469 16.785156 C 5.753906 16.605469 5.707031 16.453125 5.578125 16.320312 L 2.429688 13.265625 C 2.121094 12.957031 2.296875 12.453125 2.714844 12.386719 L 7.074219 11.75 C 7.25 11.726562 7.382812 11.617188 7.46875 11.464844 L 9.40625 7.527344 C 9.605469 7.15625 10.152344 7.15625 10.328125 7.527344 Z M 26.878906 7.527344 L 24.941406 11.464844 C 24.875 11.617188 24.722656 11.726562 24.546875 11.75 L 20.1875 12.386719 C 19.769531 12.453125 19.59375 12.980469 19.902344 13.265625 L 23.050781 16.320312 C 23.179688 16.429688 23.226562 16.605469 23.203125 16.785156 L 22.453125 21.113281 C 22.390625 21.53125 22.828125 21.859375 23.203125 21.664062 L 27.097656 19.617188 C 27.253906 19.53125 27.429688 19.53125 27.582031 19.617188 L 31.476562 21.664062 C 31.851562 21.859375 32.3125 21.53125 32.226562 21.113281 L 31.476562 16.785156 C 31.457031 16.605469 31.5 16.453125 31.632812 16.320312 L 34.777344 13.265625 C 35.085938 12.957031 34.910156 12.453125 34.492188 12.386719 L 30.15625 11.75 C 29.980469 11.726562 29.847656 11.617188 29.761719 11.464844 L 27.824219 7.527344 C 27.625 7.15625 27.074219 7.15625 26.878906 7.527344 Z M 44.371094 7.527344 L 42.4375 11.464844 C 42.371094 11.617188 42.214844 11.726562 42.039062 11.75 L 37.683594 12.386719 C 37.265625 12.453125 37.089844 12.980469 37.398438 13.265625 L 40.542969 16.320312 C 40.675781 16.429688 40.71875 16.605469 40.699219 16.785156 L 39.949219 21.113281 C 39.882812 21.53125 40.324219 21.859375 40.699219 21.664062 L 44.59375 19.617188 C 44.746094 19.53125 44.921875 19.53125 45.078125 19.617188 L 48.972656 21.664062 C 49.34375 21.859375 49.808594 21.53125 49.71875 21.113281 L 48.972656 16.785156 C 48.949219 16.605469 48.992188 16.453125 49.125 16.320312 L 52.273438 13.265625 C 52.582031 12.957031 52.40625 12.453125 51.984375 12.386719 L 47.628906 11.75 C 47.453125 11.726562 47.320312 11.617188 47.234375 11.464844 L 45.296875 7.527344 C 45.097656 7.15625 44.546875 7.15625 44.371094 7.527344 Z M 58.347656 21.949219 L 62.242188 19.90625 C 62.308594 19.882812 62.371094 19.882812 62.417969 19.90625 L 66.3125 21.949219 C 66.597656 22.101562 66.949219 22.082031 67.214844 21.882812 C 67.476562 21.683594 67.609375 21.378906 67.542969 21.046875 L 66.796875 16.71875 C 66.796875 16.652344 66.796875 16.585938 66.839844 16.542969 L 69.988281 13.507812 C 70.230469 13.289062 70.292969 12.9375 70.207031 12.628906 C 70.097656 12.320312 69.832031 12.101562 69.523438 12.058594 L 65.167969 11.417969 C 65.101562 11.417969 65.058594 11.375 65.011719 11.308594 L 63.078125 7.375 C 62.921875 7.089844 62.636719 6.890625 62.308594 6.890625 C 61.976562 6.890625 61.691406 7.066406 61.535156 7.375 L 59.601562 11.308594 C 59.578125 11.375 59.511719 11.398438 59.445312 11.417969 L 55.089844 12.058594 C 54.757812 12.101562 54.496094 12.320312 54.40625 12.628906 C 54.320312 12.9375 54.386719 13.265625 54.625 13.507812 L 57.773438 16.5625 C 57.816406 16.605469 57.839844 16.671875 57.816406 16.738281 L 57.070312 21.070312 C 57.003906 21.398438 57.136719 21.707031 57.398438 21.90625 C 57.554688 22.015625 57.730469 22.058594 57.90625 22.058594 C 58.082031 22.058594 58.214844 22.015625 58.347656 21.949219 Z M 61.910156 19.332031 L 58.015625 21.378906 C 57.929688 21.421875 57.839844 21.378906 57.816406 21.355469 C 57.796875 21.332031 57.730469 21.269531 57.75 21.179688 L 58.5 16.847656 C 58.542969 16.5625 58.457031 16.300781 58.257812 16.101562 L 55.109375 13.046875 C 55.046875 12.980469 55.046875 12.890625 55.066406 12.847656 C 55.089844 12.804688 55.109375 12.738281 55.222656 12.714844 L 59.578125 12.078125 C 59.863281 12.035156 60.085938 11.859375 60.214844 11.617188 L 62.152344 7.683594 C 62.195312 7.59375 62.285156 7.574219 62.328125 7.574219 C 62.371094 7.574219 62.460938 7.574219 62.503906 7.683594 L 64.441406 11.617188 C 64.574219 11.859375 64.816406 12.035156 65.078125 12.078125 L 69.4375 12.714844 C 69.546875 12.738281 69.570312 12.804688 69.589844 12.847656 C 69.589844 12.890625 69.613281 12.957031 69.546875 13.046875 L 66.398438 16.101562 C 66.203125 16.300781 66.113281 16.585938 66.15625 16.847656 L 66.90625 21.179688 C 66.929688 21.289062 66.863281 21.332031 66.839844 21.355469 C 66.816406 21.378906 66.730469 21.421875 66.640625 21.378906 L 62.746094 19.332031 C 62.613281 19.265625 62.484375 19.246094 62.351562 19.246094 C 62.21875 19.246094 62.042969 19.265625 61.910156 19.332031 Z M 75.816406 21.949219 L 79.714844 19.90625 C 79.777344 19.882812 79.84375 19.882812 79.890625 19.90625 L 83.785156 21.949219 C 84.070312 22.101562 84.421875 22.082031 84.6875 21.882812 C 84.949219 21.683594 85.082031 21.378906 85.015625 21.046875 L 84.269531 16.71875 C 84.269531 16.652344 84.269531 16.585938 84.3125 16.542969 L 87.460938 13.507812 C 87.699219 13.289062 87.765625 12.9375 87.679688 12.628906 C 87.570312 12.320312 87.304688 12.101562 86.996094 12.058594 L 82.640625 11.417969 C 82.574219 11.417969 82.53125 11.375 82.484375 11.308594 L 80.550781 7.375 C 80.394531 7.089844 80.109375 6.890625 79.777344 6.890625 C 79.449219 6.890625 79.164062 7.066406 79.007812 7.375 L 77.09375 11.332031 C 77.074219 11.398438 77.007812 11.417969 76.941406 11.441406 L 72.582031 12.078125 C 72.253906 12.121094 71.988281 12.34375 71.902344 12.652344 C 71.8125 12.957031 71.878906 13.289062 72.121094 13.53125 L 75.269531 16.585938 C 75.3125 16.628906 75.335938 16.695312 75.3125 16.761719 L 74.5625 21.09375 C 74.496094 21.421875 74.628906 21.730469 74.894531 21.925781 C 75.046875 22.035156 75.222656 22.082031 75.398438 22.082031 C 75.554688 22.058594 75.6875 22.015625 75.816406 21.949219 Z M 79.40625 19.332031 L 75.511719 21.378906 C 75.421875 21.421875 75.335938 21.378906 75.3125 21.355469 C 75.289062 21.332031 75.222656 21.269531 75.246094 21.179688 L 75.996094 16.847656 C 76.039062 16.5625 75.949219 16.300781 75.753906 16.101562 L 72.605469 13.046875 C 72.539062 12.980469 72.539062 12.890625 72.5625 12.847656 C 72.5625 12.804688 72.605469 12.738281 72.714844 12.714844 L 77.074219 12.078125 C 77.359375 12.035156 77.578125 11.859375 77.710938 11.617188 L 79.648438 7.683594 C 79.691406 7.59375 79.777344 7.574219 79.824219 7.574219 C 79.867188 7.574219 79.957031 7.574219 80 7.683594 L 81.9375 11.617188 C 82.066406 11.859375 82.308594 12.035156 82.574219 12.078125 L 86.929688 12.714844 C 87.039062 12.738281 87.0625 12.804688 87.085938 12.847656 C 87.085938 12.890625 87.105469 12.957031 87.039062 13.046875 L 83.894531 16.101562 C 83.695312 16.300781 83.609375 16.585938 83.652344 16.847656 L 84.398438 21.179688 C 84.421875 21.289062 84.355469 21.332031 84.335938 21.355469 C 84.3125 21.378906 84.222656 21.421875 84.136719 21.378906 L 80.242188 19.332031 C 80.109375 19.265625 79.976562 19.246094 79.84375 19.246094 C 79.714844 19.246094 79.515625 19.265625 79.40625 19.332031 Z M 79.40625 19.332031 " fill-opacity="1" fill-rule="nonzero"/></g></svg>